<svg xmlns="http://www.w3.org/2000/svg" width="141.002" height="26.078" viewBox="0 0 141.002 26.078">
  <path id="Path_384" data-name="Path 384" d="M42.15,15.6,44.2,17.723a6.438,6.438,0,0,1-1.359,1.125,5.98,5.98,0,0,1-6.261,0,6.475,6.475,0,0,1-2.289-2.4,7.06,7.06,0,0,1,0-6.68,6.559,6.559,0,0,1,2.289-2.413,5.98,5.98,0,0,1,6.261,0,6.4,6.4,0,0,1,1.341,1.109l-2.049,2.107a3.554,3.554,0,0,0-.74-.688,2.948,2.948,0,0,0-3.364,0,3.82,3.82,0,0,0-1.225,1.4,3.951,3.951,0,0,0-.448,1.823,3.893,3.893,0,0,0,.458,1.825,3.785,3.785,0,0,0,1.225,1.409,2.913,2.913,0,0,0,3.34,0A3.469,3.469,0,0,0,42.15,15.6ZM56.206,9.76a6.472,6.472,0,0,1,.9,3.343,6.406,6.406,0,0,1-.9,3.337,6.538,6.538,0,0,1-2.447,2.413A6.746,6.746,0,0,1,44.6,16.44a6.406,6.406,0,0,1-.9-3.337,6.472,6.472,0,0,1,.9-3.343,6.738,6.738,0,0,1,11.59,0ZM54,13.1a3.688,3.688,0,0,0-.482-1.823,3.888,3.888,0,0,0-1.317-1.4,3.332,3.332,0,0,0-1.8-.527,3.285,3.285,0,0,0-1.8.527,3.783,3.783,0,0,0-1.317,1.4A3.688,3.688,0,0,0,46.8,13.1a3.64,3.64,0,0,0,.493,1.825,3.825,3.825,0,0,0,1.317,1.4,3.316,3.316,0,0,0,3.588,0,3.92,3.92,0,0,0,1.317-1.4A3.741,3.741,0,0,0,54,13.1Zm14.659-2.5a6.075,6.075,0,0,1,.527,2.5,5.959,5.959,0,0,1-.527,2.487,6.285,6.285,0,0,1-1.438,2.031,6.738,6.738,0,0,1-2.134,1.346,7,7,0,0,1-2.6.482H57.937V6.754H62.47a7.009,7.009,0,0,1,2.616.482,6.915,6.915,0,0,1,2.139,1.333A6.285,6.285,0,0,1,68.658,10.6Zm-2.718,2.5a3.662,3.662,0,0,0-.284-1.393,3.833,3.833,0,0,0-.79-1.164,3.878,3.878,0,0,0-1.206-.79,3.83,3.83,0,0,0-1.475-.3H61.171v7.31h1.017a3.7,3.7,0,0,0,1.465-.3,3.848,3.848,0,0,0,1.209-.814,3.714,3.714,0,0,0,.8-1.172,3.451,3.451,0,0,0,.277-1.386Zm4.049,6.354h8.055V16.782H73.1v-2.45h3.237l-.714-2.674H73.109v-2.2h4.944V6.767H69.988Zm19.253-6.849L81.154,6.585V19.416h3.135V12.968l8.076,6.485V6.772l-3.114-.018Zm4.742,6.83H97.1V6.772H93.972Zm15.929,0V6.767L106.8,6.749v5.858L98.705,6.585V19.411h3.129V12.965Zm1.646-.577h0a5.479,5.479,0,0,1-.137.632,3.3,3.3,0,0,1-.967,1.457,3.788,3.788,0,0,1-1.617.859h-.063l-.116.018c-.124.024-.263.045-.393.063V24.6a7.813,7.813,0,0,0,1.333-.187,6.865,6.865,0,0,0,2.984-1.58,5.877,5.877,0,0,0,1.762-2.661,4.846,4.846,0,0,0,.205-1.17h.018V6.772h-3.021ZM122,6.585l6.983,12.868h-3.211L124.528,17.2h-5.071l-1.243,2.252H115Zm1.243,8.271L122,12.6l-1.251,2.252Zm11.24-3.029q-.938-.358-1.831-.743t-.877-1.019a.856.856,0,0,1,.4-.735A1.378,1.378,0,0,1,133,9.054a2.25,2.25,0,0,1,1.038.232,4.607,4.607,0,0,1,.975.743l1.528-2.181a5.255,5.255,0,0,0-3.622-1.467,4.4,4.4,0,0,0-1.994.469,3.793,3.793,0,0,0-1.528,1.359,3.714,3.714,0,0,0-.59,2.092,3.518,3.518,0,0,0,.68,2.352,4.244,4.244,0,0,0,1.636,1.188l.474.2.466.187.911.385q.885.387.885,1.038a.922.922,0,0,1-.474.84,1.9,1.9,0,0,1-1.012.3,2.566,2.566,0,0,1-2.107-1.019l-1.694,2.384a5.06,5.06,0,0,0,1.8,1.127,6.059,6.059,0,0,0,2.107.374,4.446,4.446,0,0,0,3.1-1.1,3.97,3.97,0,0,0,1.225-3.129A3.715,3.715,0,0,0,136.121,13a4.154,4.154,0,0,0-1.641-1.188Zm6.551-3.661a1.744,1.744,0,0,1-.527,1.267,1.775,1.775,0,0,1-2.523,0,1.8,1.8,0,0,1,0-2.539,1.775,1.775,0,0,1,2.524,0A1.741,1.741,0,0,1,141.031,8.166Zm-.414,0a1.333,1.333,0,0,0-.4-.98,1.362,1.362,0,0,0-1.939,0,1.391,1.391,0,0,0,0,1.957,1.362,1.362,0,0,0,1.939,0,1.333,1.333,0,0,0,.4-.977Zm-1.054.126.461.806H139.5l-.429-.83h0v.824h-.453V7.249h.527a1.151,1.151,0,0,1,.387.058.49.49,0,0,1,.263.184.587.587,0,0,1,.013.611.427.427,0,0,1-.229.176Zm-.155-.4a.208.208,0,0,0-.084-.195.54.54,0,0,0-.263-.053v.527a.553.553,0,0,0,.19-.029.229.229,0,0,0,.119-.087.277.277,0,0,0,.053-.176ZM14.478,12.76l-3.97-.472a.221.221,0,0,0-.2.356,3.058,3.058,0,0,0,4.254.474.2.2,0,0,0-.084-.358Zm6.812.364a3.06,3.06,0,0,0,4.254-.479.221.221,0,0,0-.2-.361l-3.97.477a.2.2,0,0,0-.084.364Zm9.046-.084c0,7.2-5.553,13.039-12.4,13.039A12.624,12.624,0,0,1,5.667,15.031a4.8,4.8,0,0,1-3.322,3.108.466.466,0,0,1-.611-.382c-.29-2.729.954-4.093,2.107-4.765A5.048,5.048,0,0,1,.119,10.961a.421.421,0,0,1,.15-.64c2.634-1.291,4.415-.506,5.447.374A12.591,12.591,0,0,1,17.934,0C24.783,0,30.336,5.837,30.336,13.039Zm-5.837,9.3S14.383,26.342,8.056,18.176c0,0,2.487,5.769,8.693,6.454A10.653,10.653,0,0,0,24.5,22.335Zm4.07-11.854a79.864,79.864,0,0,1-10.634.616h0a90.286,90.286,0,0,1-10.647-.64,10.236,10.236,0,0,0-.279,2.581h0a14.488,14.488,0,0,0,.287,2.56,103.827,103.827,0,0,1,10.639-.493h0c3.161,0,6.8.129,10.613.511h.032a10.213,10.213,0,0,0,.279-2.576h0a14.543,14.543,0,0,0-.29-2.563Zm-.906-2.416s-2.487-5.771-8.693-6.454a10.653,10.653,0,0,0-7.752,2.294s10.12-4,16.445,4.157Z" transform="translate(-0.03)" fill="#fcfdff"/>
</svg>
